<svg width="146" height="68" viewBox="0 0 146 68" fill="none" xmlns="http://www.w3.org/2000/svg">
<g clip-path="url(#clip0_11_16)">
<path d="M57.592 17C57.4608 16.252 50.1142 14.756 44.9323 14.756C39.7503 14.756 37.7169 15.708 36.3394 16.66C34.9619 17.612 32.7973 17.612 32.7973 17.612C32.7973 17.612 30.567 17.612 29.1896 16.66C27.8121 15.708 25.7786 14.756 20.5967 14.756C15.4147 14.756 8.1337 16.184 7.93692 17C7.80573 17.748 7.67454 20.264 8.1337 20.74C8.59286 21.216 9.24881 20.808 9.38 22.372C9.44559 23.936 10.6263 30.396 14.1028 32.504C17.5793 34.612 23.8108 32.912 26.041 31.552C28.2712 30.124 30.567 27.2 30.895 24.82C31.223 22.44 31.8133 20.74 32.7317 20.74C33.65 20.74 34.1747 22.372 34.5683 24.82C34.9619 27.268 37.2577 30.124 39.4223 31.552C41.6525 32.98 47.884 34.68 51.3605 32.504C54.837 30.396 55.9521 23.936 56.0833 22.372C56.1489 20.808 56.8049 21.216 57.3296 20.74C57.8544 20.332 57.7232 17.816 57.592 17Z" fill="#52FF00"/>
<path d="M20.5967 43.044C20.5967 43.044 30.3047 37.332 37.7825 36.856C45.2603 36.38 47.9496 37.468 44.6699 38.216C41.3902 38.964 37.1265 37.74 30.4359 40.12C23.7452 42.5 18.6945 44.472 20.5967 43.044Z" fill="#52FF00"/>
<path d="M41.4558 64.6H24.1388C12.6597 64.6 3.27972 54.876 3.27972 42.976V40.12C3.27972 40.12 3.27972 40.12 3.27972 40.052C3.41091 36.516 4.13245 34.204 5.31316 33.184L5.37875 33.116C5.31316 32.912 5.11637 32.572 4.98518 32.3C4.32924 31.008 3.27972 28.9 3.27972 24.956C3.27972 13.124 12.6597 3.40002 24.1388 3.40002H41.5214C52.9348 3.40002 62.3148 13.124 62.3148 25.024C62.3148 28.9 61.1997 31.076 60.6094 32.368C60.4782 32.64 60.2814 33.048 60.2158 33.184C60.2158 33.184 60.2158 33.184 60.2814 33.252C61.4621 34.272 62.1836 36.584 62.3148 40.12C62.3148 40.12 62.3148 40.12 62.3148 40.188V43.044C62.3148 54.876 52.9348 64.6 41.4558 64.6ZM5.24756 40.188V42.976C5.24756 53.788 13.7093 62.56 24.1388 62.56H41.5214C51.8853 62.56 60.347 53.788 60.347 42.976V40.188C60.2158 37.4 59.6911 35.36 59.0351 34.816C57.7232 33.728 58.3792 32.436 58.8383 31.416C59.4287 30.26 60.347 28.424 60.347 25.024C60.347 14.212 51.8853 5.44002 41.4558 5.44002H24.1388C13.7093 5.44002 5.24756 14.212 5.24756 25.024C5.24756 28.424 6.16588 30.192 6.75624 31.416C7.28099 32.436 7.93694 33.728 6.55945 34.816C5.83791 35.36 5.37875 37.4 5.24756 40.188ZM32.7973 62.084C20.9247 62.084 11.2823 52.088 11.2823 39.78C11.2823 37.944 11.479 36.108 11.9382 34.34C9.70799 31.552 8.46169 28.084 8.46169 24.48C8.46169 24.004 8.4617 23.46 8.52729 22.916C8.52729 22.712 8.46169 22.576 8.46169 22.44C8.46169 22.168 8.3961 22.032 8.3961 21.964H8.33051C8.13372 21.896 7.87134 21.76 7.60897 21.556C6.42826 20.536 7.01861 16.864 7.01861 16.864C7.1498 16.32 7.28099 15.64 11.807 14.756C14.6276 11.152 18.8256 9.11202 23.2861 9.11202C26.7626 9.11202 30.1079 10.404 32.7973 12.716C35.4867 10.404 38.832 9.11202 42.3085 9.11202C46.7689 9.11202 50.967 11.152 53.7875 14.756C58.3136 15.64 58.4448 16.32 58.5759 16.864C58.5759 16.932 59.2319 20.536 57.9856 21.556C57.7232 21.76 57.4608 21.896 57.2641 21.964H57.1985C57.1985 22.032 57.1329 22.168 57.1329 22.44C57.1329 22.576 57.1329 22.712 57.0673 22.916C57.1329 23.46 57.1329 23.936 57.1329 24.48C57.1329 28.084 55.8866 31.552 53.6564 34.34C54.1155 36.108 54.3123 37.944 54.3123 39.78C54.3123 52.088 44.6699 62.084 32.7973 62.084ZM8.92086 19.992C8.92086 19.992 8.98645 19.992 8.98645 20.06C9.77359 20.332 10.2983 20.876 10.4295 22.304C10.4295 22.44 10.4295 22.576 10.4951 22.78C10.4951 22.848 10.4951 22.916 10.4951 23.052C10.4295 23.528 10.4295 24.004 10.4295 24.48C10.4295 27.812 11.6102 30.94 13.7093 33.388C13.906 33.66 14.0372 34 13.906 34.34C13.4469 36.108 13.1845 37.944 13.1845 39.78C13.1845 51 21.9742 60.044 32.7317 60.044C43.4892 60.044 52.2789 50.932 52.2789 39.78C52.2789 37.944 52.0165 36.108 51.5573 34.34C51.4917 34 51.5573 33.66 51.7541 33.388C53.8531 30.94 55.0338 27.744 55.0338 24.48C55.0338 24.004 55.0338 23.528 54.9682 23.052C54.9682 22.984 54.9682 22.916 54.9682 22.78C54.9682 22.576 55.0338 22.44 55.0338 22.304C55.0994 20.808 55.6898 20.332 56.4769 20.06C56.4769 20.06 56.5425 20.06 56.5425 19.992C56.6737 19.516 56.6737 18.292 56.5425 17.544C56.1489 17.34 55.0338 17 52.8692 16.592C52.6068 16.524 52.4101 16.388 52.2789 16.252C49.7863 12.988 46.113 11.084 42.1117 11.084C38.832 11.084 35.6834 12.376 33.2564 14.688C32.8629 15.028 32.2725 15.028 31.9446 14.688C29.5176 12.376 26.4346 11.084 23.0893 11.084C19.088 11.084 15.4147 12.988 12.9221 16.252C12.7909 16.456 12.5942 16.592 12.3318 16.592C10.1672 17 9.11764 17.34 8.65848 17.544C8.78967 18.36 8.78967 19.584 8.92086 19.992Z" fill="#52FF00"/>
</g>
<path d="M84.6539 30C83.6459 30 82.7499 29.632 81.9659 28.896C81.1819 28.144 80.5099 27.128 79.9499 25.848C79.6299 27.112 79.1179 28.056 78.4139 28.68C77.7099 29.288 76.9339 29.592 76.0859 29.592C74.8859 29.592 73.9979 28.56 73.4219 26.496C72.8619 24.432 72.5819 21.96 72.5819 19.08C72.5819 18.248 72.6459 17.592 72.7739 17.112C72.9019 16.616 73.1419 16.368 73.4939 16.368C73.6379 16.368 73.7499 16.64 73.8299 17.184C73.9259 17.728 73.9739 18.416 73.9739 19.248C73.9739 25.232 74.7419 28.224 76.2779 28.224C76.8539 28.224 77.3419 28.064 77.7419 27.744C78.1419 27.424 78.5179 26.904 78.8699 26.184C79.0459 25.752 79.1339 25.04 79.1339 24.048L79.1099 22.536C79.1899 22.392 79.3339 22.32 79.5419 22.32C79.6859 22.32 79.8219 22.36 79.9499 22.44C80.0939 22.504 80.1899 22.616 80.2379 22.776C80.3499 23.624 80.5739 24.488 80.9099 25.368C81.2619 26.232 81.7259 26.968 82.3019 27.576C82.8939 28.168 83.5899 28.464 84.3899 28.464C85.4939 28.464 86.2779 28.224 86.7419 27.744C87.2059 27.248 87.4379 26.584 87.4379 25.752C87.4379 23.944 87.3099 22.496 87.0539 21.408C86.8139 20.304 86.4939 19.264 86.0939 18.288C85.9179 17.824 85.7899 17.48 85.7099 17.256C85.6459 17.032 85.6139 16.8 85.6139 16.56C85.7259 16.304 85.8779 16.176 86.0699 16.176C86.4219 16.176 86.8059 16.6 87.2219 17.448C87.6539 18.296 88.0219 19.44 88.3259 20.88C88.6299 22.304 88.7819 23.84 88.7819 25.488C88.7819 26.4 88.5899 27.2 88.2059 27.888C87.8379 28.56 87.3339 29.08 86.6939 29.448C86.0699 29.816 85.3899 30 84.6539 30ZM102.087 30C101.687 30.08 101.407 29.888 101.247 29.424C101.087 28.944 100.999 28.24 100.983 27.312C100.951 25.952 100.903 24.816 100.839 23.904C100.791 22.976 100.695 22.144 100.551 21.408C99.0633 22.112 97.5913 22.76 96.1353 23.352C94.6953 23.928 93.9753 24.208 93.9753 24.192L94.0233 29.304C94.0233 29.544 93.8793 29.696 93.5913 29.76C93.2073 29.84 92.9513 29.624 92.8233 29.112C92.7113 28.584 92.6313 27.76 92.5833 26.64C92.5513 25.632 92.5033 24.92 92.4393 24.504C91.9913 24.728 91.6073 24.832 91.2873 24.816C91.2233 24.688 91.1913 24.424 91.1913 24.024C91.3193 23.976 91.4713 23.92 91.6473 23.856C91.8393 23.792 91.9753 23.72 92.0553 23.64C92.1513 23.544 92.1993 23.408 92.1993 23.232C92.1993 22.432 92.1193 21.2 91.9593 19.536C91.7833 18.032 91.6953 16.792 91.6953 15.816L91.7193 14.712C91.7673 14.6 91.8233 14.528 91.8873 14.496C91.9673 14.464 92.0713 14.448 92.1993 14.448C92.4713 14.448 92.6073 14.536 92.6073 14.712L93.5913 23.16C94.0393 23.048 94.7833 22.76 95.8233 22.296C96.8633 21.832 98.4633 21.08 100.623 20.04L100.719 14.712C100.719 14.088 100.951 13.776 101.415 13.776C101.607 13.776 101.735 13.848 101.799 13.992C101.879 14.136 101.903 14.376 101.871 14.712L101.847 18.864C101.847 20.272 101.927 22.104 102.087 24.36C102.135 24.808 102.175 25.24 102.207 25.656C102.255 26.056 102.295 26.44 102.327 26.808C102.423 27.8 102.487 28.432 102.519 28.704C102.567 28.96 102.639 29.192 102.735 29.4C102.655 29.72 102.439 29.92 102.087 30ZM107.921 30C107.713 30.08 107.513 30.032 107.321 29.856C107.145 29.68 107.049 29.432 107.033 29.112C106.969 28.648 106.897 28.08 106.817 27.408C106.753 26.736 106.705 26.24 106.673 25.92C106.641 25.6 106.569 24.984 106.457 24.072C106.361 23.144 106.257 22.344 106.145 21.672C106.113 21.448 106.009 21.048 105.833 20.472C105.369 18.824 105.137 17.632 105.137 16.896C105.249 16.736 105.361 16.656 105.473 16.656C105.889 16.656 106.321 17.488 106.769 19.152C107.217 20.816 107.593 22.696 107.897 24.792C108.217 26.872 108.377 28.296 108.377 29.064C108.377 29.096 108.377 29.2 108.377 29.376C108.377 29.536 108.337 29.672 108.257 29.784C108.193 29.896 108.081 29.968 107.921 30ZM117.961 30.024C117.513 30.024 117.201 29.792 117.025 29.328C116.849 28.864 116.705 28.24 116.593 27.456L116.521 26.856C116.281 25.576 116.089 24.304 115.945 23.04C115.801 21.76 115.657 20.216 115.513 18.408L115.369 16.632C114.409 16.648 113.041 16.608 111.265 16.512L110.785 16.488C110.561 16.472 110.401 16.368 110.305 16.176C110.225 15.968 110.185 15.688 110.185 15.336H111.841C114.625 15.336 117.137 15.44 119.377 15.648C121.617 15.856 122.737 16.28 122.737 16.92C122.737 17.096 122.705 17.216 122.641 17.28C122.593 17.344 122.481 17.376 122.305 17.376C121.665 17.328 120.673 17.192 119.329 16.968C119.025 16.92 118.657 16.864 118.225 16.8C117.793 16.736 117.305 16.672 116.761 16.608C116.761 18.928 117.105 22.496 117.793 27.312C117.825 27.552 117.937 27.896 118.129 28.344C118.209 28.536 118.281 28.744 118.345 28.968C118.425 29.176 118.465 29.368 118.465 29.544C118.465 29.768 118.433 29.904 118.369 29.952C118.305 30 118.225 30.024 118.129 30.024C118.049 30.024 117.993 30.024 117.961 30.024ZM129.535 30.024C128.207 30.024 127.239 29.776 126.631 29.28C126.039 28.784 125.743 27.888 125.743 26.592L126.079 21.216V16.056C126.079 15.656 126.159 15.4 126.319 15.288C126.479 15.16 126.831 15.096 127.375 15.096L129.007 15.144C131.055 15.256 133.055 15.312 135.007 15.312C135.423 15.312 135.751 15.432 135.991 15.672C136.247 15.912 136.375 16.24 136.375 16.656C136.375 16.736 136.351 16.8 136.303 16.848C136.255 16.896 136.199 16.912 136.135 16.896L135.007 16.464L127.495 16.656C127.399 16.656 127.343 16.648 127.327 16.632C127.391 16.76 127.423 16.872 127.423 16.968V21.216C128.159 21.264 128.871 21.288 129.559 21.288C130.743 21.288 132.047 21.232 133.471 21.12C133.615 21.104 133.831 21.088 134.119 21.072C134.423 21.04 134.591 21.04 134.623 21.072C134.719 21.168 134.791 21.256 134.839 21.336C134.887 21.416 134.919 21.528 134.935 21.672C134.983 22.024 134.447 22.256 133.327 22.368C132.223 22.48 130.743 22.568 128.887 22.632C128.263 22.632 127.743 22.648 127.327 22.68C127.135 23.16 127.039 23.928 127.039 24.984L127.063 26.4V27.96C127.319 28.168 127.599 28.304 127.903 28.368C128.207 28.432 128.703 28.464 129.391 28.464C130.111 28.464 130.815 28.424 131.503 28.344C132.207 28.264 132.623 28.216 132.751 28.2C134.095 28.04 135.095 27.96 135.751 27.96C136.135 27.96 136.399 28 136.543 28.08C136.703 28.144 136.783 28.264 136.783 28.44C136.783 29.496 134.639 30.024 130.351 30.024H129.535ZM80.1659 51.088C81.4779 51.088 82.4939 50.904 83.2139 50.536C83.9339 50.168 84.2939 49.632 84.2939 48.928C84.2939 48.304 84.0779 47.768 83.6459 47.32C83.2139 46.856 82.6779 46.464 82.0379 46.144C81.3979 45.824 80.5259 45.448 79.4219 45.016C79.3259 44.984 79.0939 44.896 78.7259 44.752C77.2219 44.144 76.0619 43.536 75.2459 42.928C74.4459 42.32 74.0459 41.536 74.0459 40.576C74.0459 39.504 74.4699 38.696 75.3179 38.152C76.1659 37.608 77.2539 37.336 78.5819 37.336C79.5579 37.336 80.4539 37.464 81.2699 37.72C82.1019 37.96 82.7579 38.296 83.2379 38.728C83.7339 39.16 83.9819 39.648 83.9819 40.192C83.7899 40.288 83.6059 40.336 83.4299 40.336C83.2379 40.336 83.0379 40.296 82.8299 40.216C82.6379 40.12 82.3499 39.968 81.9659 39.76C81.3419 39.424 80.7579 39.16 80.2139 38.968C79.6699 38.76 79.0299 38.656 78.2939 38.656C77.3659 38.656 76.6139 38.816 76.0379 39.136C75.4619 39.456 75.1739 39.904 75.1739 40.48C75.1739 40.928 75.3659 41.336 75.7499 41.704C76.1499 42.072 76.6459 42.4 77.2379 42.688C77.8459 42.96 78.6539 43.288 79.6619 43.672C80.9419 44.168 81.9979 44.632 82.8299 45.064C83.6619 45.496 84.3659 46.048 84.9419 46.72C85.5339 47.376 85.8299 48.16 85.8299 49.072C85.8299 50.144 85.3179 50.976 84.2939 51.568C83.2699 52.144 81.9979 52.432 80.4779 52.432C79.2779 52.432 78.0939 52.256 76.9259 51.904C75.7579 51.552 74.7579 51.032 73.9259 50.344C73.0939 49.64 72.5659 48.8 72.3419 47.824C72.3419 47.392 72.4619 47.024 72.7019 46.72C72.9419 46.4 73.2379 46.24 73.5899 46.24C73.5899 47.28 73.8779 48.168 74.4539 48.904C75.0459 49.624 75.8379 50.168 76.8299 50.536C77.8379 50.904 78.9499 51.088 80.1659 51.088ZM91.1483 51.04C90.8443 49.824 90.6123 48.6 90.4523 47.368C90.2923 46.12 90.1483 44.072 90.0203 41.224C90.0203 41.032 90.0843 40.864 90.2123 40.72C90.3563 40.576 90.5163 40.504 90.6923 40.504H90.9083C90.9883 41.032 91.0443 41.88 91.0763 43.048C91.0763 43.176 91.0923 43.608 91.1243 44.344C91.1563 45.064 91.2363 45.744 91.3643 46.384C93.2203 46.208 94.7003 45.848 95.8043 45.304C96.9243 44.76 97.4843 43.984 97.4843 42.976C97.4843 41.712 96.9243 40.68 95.8043 39.88C94.6843 39.08 92.9963 38.68 90.7403 38.68C89.7963 38.68 88.9963 38.856 88.3403 39.208C88.2283 39.256 88.1483 39.36 88.1003 39.52C88.0523 39.664 88.0123 39.872 87.9803 40.144C87.9483 40.432 87.9083 40.648 87.8603 40.792C87.8123 40.936 87.7243 41.008 87.5963 41.008C87.4523 41.008 87.3563 40.904 87.3083 40.696C87.2763 40.472 87.2603 39.968 87.2603 39.184C87.2603 38.736 87.5643 38.384 88.1723 38.128C88.7803 37.872 89.5643 37.744 90.5243 37.744C93.3243 37.744 95.4043 38.184 96.7643 39.064C98.1243 39.944 98.8043 41.296 98.8043 43.12C98.8043 44.096 98.4123 44.912 97.6283 45.568C96.8443 46.224 95.8923 46.712 94.7723 47.032C93.6523 47.336 92.5803 47.488 91.5563 47.488C91.5883 47.68 91.6203 47.856 91.6523 48.016C91.6843 48.176 91.7083 48.312 91.7243 48.424C91.9483 49.512 92.0603 50.352 92.0603 50.944C92.0603 51.296 92.0123 51.576 91.9163 51.784C91.8363 51.992 91.6523 52.064 91.3643 52L91.1483 51.04ZM111.466 52.024C111.274 52.024 111.138 51.976 111.058 51.88C110.994 51.784 110.962 51.648 110.962 51.472C110.962 51.12 111.042 50.576 111.202 49.84C111.378 49.168 111.466 48.616 111.466 48.184C111.466 46.936 111.37 45.984 111.178 45.328H110.434C109.778 45.328 108.922 45.312 107.866 45.28L105.61 45.256H102.37L102.418 46.192C102.418 46.928 102.538 47.848 102.778 48.952C102.858 49.4 102.93 49.856 102.994 50.32C103.074 50.768 103.114 51.176 103.114 51.544V51.76C102.954 51.92 102.786 52 102.61 52C102.194 52 101.866 51.512 101.626 50.536C101.386 49.544 101.266 48.352 101.266 46.96C101.266 46.4 101.29 45.848 101.338 45.304C100.986 45.288 100.746 45.232 100.618 45.136C100.49 45.024 100.426 44.856 100.426 44.632C100.426 44.456 100.474 44.336 100.57 44.272C100.682 44.208 100.874 44.16 101.146 44.128L101.122 43.48L101.194 42.376C101.306 40.568 101.474 39.096 101.698 37.96C101.922 36.824 102.402 35.84 103.138 35.008C103.874 34.176 104.978 33.76 106.45 33.76C108.13 33.76 109.442 34.664 110.386 36.472C111.33 38.28 111.97 40.296 112.306 42.52C112.642 44.744 112.81 46.656 112.81 48.256C112.81 48.832 112.794 49.336 112.762 49.768C112.73 50.184 112.666 50.704 112.57 51.328C112.202 51.792 111.834 52.024 111.466 52.024ZM111.082 44.392C110.778 41.432 110.234 39.112 109.45 37.432C108.666 35.736 107.49 34.888 105.922 34.888C104.754 34.888 103.89 35.432 103.33 36.52C102.786 37.592 102.458 38.744 102.346 39.976C102.234 41.208 102.178 42.592 102.178 44.128L111.082 44.392ZM120.447 52.264C119.343 52.264 118.399 51.96 117.615 51.352C116.831 50.744 116.231 49.912 115.815 48.856C115.415 47.8 115.215 46.6 115.215 45.256C115.215 43.752 115.567 42.328 116.271 40.984C116.975 39.624 117.895 38.536 119.031 37.72C120.183 36.888 121.375 36.472 122.607 36.472C123.647 36.472 124.447 36.704 125.007 37.168C125.567 37.632 125.847 38.176 125.847 38.8C125.847 39.168 125.735 39.504 125.511 39.808C125.303 40.112 124.999 40.344 124.599 40.504C124.551 40.408 124.527 40.256 124.527 40.048C124.527 39.856 124.551 39.664 124.599 39.472C124.631 39.216 124.647 39.032 124.647 38.92C124.647 38.76 124.623 38.624 124.575 38.512C124.351 37.952 123.743 37.672 122.751 37.672C122.479 37.672 122.159 37.696 121.791 37.744C120.943 37.856 120.103 38.28 119.271 39.016C118.439 39.736 117.759 40.64 117.231 41.728C116.703 42.816 116.439 43.928 116.439 45.064C116.439 46.056 116.599 47 116.919 47.896C117.255 48.776 117.735 49.488 118.359 50.032C118.983 50.576 119.727 50.848 120.591 50.848C121.711 50.848 122.639 50.712 123.375 50.44C124.127 50.168 124.863 49.752 125.583 49.192C125.663 49.128 125.751 49.096 125.847 49.096C126.023 49.096 126.143 49.2 126.207 49.408C126.287 49.792 126.031 50.208 125.439 50.656C124.847 51.104 124.079 51.488 123.135 51.808C122.191 52.112 121.295 52.264 120.447 52.264ZM133.379 52.024C132.051 52.024 131.083 51.776 130.475 51.28C129.883 50.784 129.587 49.888 129.587 48.592L129.923 43.216V38.056C129.923 37.656 130.003 37.4 130.163 37.288C130.323 37.16 130.675 37.096 131.219 37.096L132.851 37.144C134.899 37.256 136.899 37.312 138.851 37.312C139.267 37.312 139.595 37.432 139.835 37.672C140.091 37.912 140.219 38.24 140.219 38.656C140.219 38.736 140.195 38.8 140.147 38.848C140.099 38.896 140.043 38.912 139.979 38.896L138.851 38.464L131.339 38.656C131.243 38.656 131.187 38.648 131.171 38.632C131.235 38.76 131.267 38.872 131.267 38.968V43.216C132.003 43.264 132.715 43.288 133.403 43.288C134.587 43.288 135.891 43.232 137.315 43.12C137.459 43.104 137.675 43.088 137.963 43.072C138.267 43.04 138.435 43.04 138.467 43.072C138.563 43.168 138.635 43.256 138.683 43.336C138.731 43.416 138.763 43.528 138.779 43.672C138.827 44.024 138.291 44.256 137.171 44.368C136.067 44.48 134.587 44.568 132.731 44.632C132.107 44.632 131.587 44.648 131.171 44.68C130.979 45.16 130.883 45.928 130.883 46.984L130.907 48.4V49.96C131.163 50.168 131.443 50.304 131.747 50.368C132.051 50.432 132.547 50.464 133.235 50.464C133.955 50.464 134.659 50.424 135.347 50.344C136.051 50.264 136.467 50.216 136.595 50.2C137.939 50.04 138.939 49.96 139.595 49.96C139.979 49.96 140.243 50 140.387 50.08C140.547 50.144 140.627 50.264 140.627 50.44C140.627 51.496 138.483 52.024 134.195 52.024H133.379Z" fill="#52FF00"/>
<defs>
<clipPath id="clip0_11_16">
<rect width="65.5946" height="68" fill="white"/>
</clipPath>
</defs>
</svg>
